# xmcd
#
# Track frame offsets:
#	150
#	21262
#	40254
#	57547
#	76292
#	94458
#	115148
#	131506
#	145798
#	163182
#	181368
#
# Disc length: 2817 seconds
#
# Revision: 0
# Processed by: cddbd v1.5.2PL0 Copyright (c) Steve Scherf et al.
# Submitted via: dBpowerAMP V4.0
#
DISCID=980aff0b
DTITLE=Renee Geyer - Dedicated
DYEAR=2007
DGENRE=Blues
TTITLE0=Why Can't We Live Together
TTITLE1=I Wish It Would Rain
TTITLE2=Please Leave Your Light On
TTITLE3=Somebody's On Your Case
TTITLE4=Dedicated To The One I Love
TTITLE5=When A Woman Loves A Man
TTITLE6=Steal Away
TTITLE7=Beautiful Morning
TTITLE8=So I Can Love You
TTITLE9=Distant Lover
TTITLE10=It's A Man's, Man's, Man's World
EXTD=
EXTT0=
EXTT1=
EXTT2=
EXTT3=
EXTT4=
EXTT5=
EXTT6=
EXTT7=
EXTT8=
EXTT9=
EXTT10=
PLAYORDER=
